<svg width="164" height="160" viewBox="0 0 164 160" fill="none" xmlns="http://www.w3.org/2000/svg">
<rect width="160" height="160" rx="20" fill="#0A398A"/>
<path d="M82.512 103.792V118H28.304V25.456H45.52V103.792H82.512Z" fill="white"/>
<mask id="path-3-outside-1_5705_7" maskUnits="userSpaceOnUse" x="106" y="38" width="20" height="95" fill="black">
<rect fill="white" x="106" y="38" width="20" height="95"/>
<path d="M124.584 132H107.304V39.456H124.584V132Z"/>
</mask>
<path d="M124.584 132V133H125.584V132H124.584ZM107.304 132H106.304V133H107.304V132ZM107.304 39.456V38.456H106.304V39.456H107.304ZM124.584 39.456H125.584V38.456H124.584V39.456ZM124.584 131H107.304V133H124.584V131ZM108.304 132V39.456H106.304V132H108.304ZM107.304 40.456H124.584V38.456H107.304V40.456ZM123.584 39.456V132H125.584V39.456H123.584Z" fill="white" mask="url(#path-3-outside-1_5705_7)"/>
</svg>
