<?xml version="1.0" encoding="utf-8"?><svg viewBox="0 0 241 78" xmlns="http://www.w3.org/2000/svg" xmlns:xlink="http://www.w3.org/1999/xlink"><style>:root>svg{display:none}:root>svg:target{display:block}</style><svg viewBox="0 0 11 8" id="arrow-left" xmlns="http://www.w3.org/2000/svg"><path d="M.646 3.646a.5.5 0 0 0 0 .708l3.182 3.182a.5.5 0 1 0 .708-.708L1.707 4l2.829-2.828a.5.5 0 1 0-.708-.708L.646 3.646ZM11 3.5H1v1h10v-1Z"/></svg><svg viewBox="0 0 12 8" id="arrow-right" xmlns="http://www.w3.org/2000/svg"><path d="M11.354 4.354a.5.5 0 0 0 0-.708L8.172.464a.5.5 0 1 0-.708.708L10.293 4 7.464 6.828a.5.5 0 1 0 .708.708l3.182-3.182ZM0 4.5h11v-1H0v1Z"/></svg><svg fill="none" viewBox="0 0 163 73" id="duffbeer-167" xmlns="http://www.w3.org/2000/svg"><path d="M4.8 65.358h15.581V16.24c0-1.475.05-2.966.152-4.475l-12.95 11.01c-.338.269-.675.47-1.012.604-.338.1-.658.15-.962.15-.505 0-.96-.1-1.365-.3-.405-.235-.709-.504-.911-.805L.5 18.552 22.05 0h7.336v65.358h14.266v6.838H4.8v-6.838ZM81.854 28.054c2.9 0 5.65.486 8.246 1.458 2.597.938 4.873 2.33 6.83 4.173 1.956 1.81 3.507 4.055 4.654 6.736 1.146 2.648 1.72 5.682 1.72 9.1 0 3.319-.607 6.402-1.822 9.251a22.419 22.419 0 0 1-5.109 7.44c-2.158 2.112-4.772 3.772-7.841 4.978C85.462 72.397 82.09 73 78.414 73c-3.642 0-6.947-.57-9.915-1.71-2.934-1.172-5.447-2.815-7.538-4.926-2.09-2.145-3.71-4.726-4.856-7.743-1.113-3.05-1.67-6.452-1.67-10.206 0-3.15.708-6.502 2.125-10.055 1.416-3.553 3.66-7.373 6.728-11.463L81.652 2.313c.472-.604 1.13-1.106 1.973-1.509.843-.435 1.804-.653 2.883-.653h7.993L69.36 31.774c1.72-1.173 3.625-2.078 5.716-2.715 2.091-.67 4.35-1.005 6.78-1.005Zm-18.718 21.92c0 2.313.338 4.424 1.012 6.335.675 1.91 1.653 3.552 2.934 4.927 1.316 1.374 2.9 2.446 4.756 3.217 1.888.737 4.03 1.106 6.424 1.106 2.429 0 4.62-.385 6.577-1.156 1.956-.771 3.625-1.844 5.008-3.218 1.417-1.374 2.496-3 3.238-4.877.775-1.876 1.163-3.92 1.163-6.133 0-2.346-.37-4.458-1.113-6.335-.742-1.91-1.787-3.52-3.136-4.826-1.35-1.34-2.968-2.363-4.857-3.067-1.888-.704-3.962-1.056-6.222-1.056-2.428 0-4.62.42-6.576 1.257-1.957.804-3.626 1.91-5.009 3.318a14.586 14.586 0 0 0-3.136 4.827 15.453 15.453 0 0 0-1.063 5.68ZM162.5.15v4.023c0 1.14-.135 2.078-.405 2.815-.236.738-.489 1.358-.759 1.86l-29.998 60.18a6.942 6.942 0 0 1-1.822 2.263c-.775.603-1.821.905-3.136.905h-6.425l30.454-59.426c.439-.838.877-1.609 1.316-2.313.472-.704.995-1.374 1.568-2.01h-37.84c-.574 0-1.096-.219-1.569-.654-.438-.47-.657-.989-.657-1.559V.151H162.5Z" fill="#fff"/></svg><svg fill="none" viewBox="0 0 59 78" id="duffbeer-4" xmlns="http://www.w3.org/2000/svg"><path d="M47.145 49.72H59v5.48c0 .574-.182 1.057-.546 1.451-.328.394-.856.591-1.585.591h-9.724V77.5h-8.577V57.242H3.879c-.728 0-1.365-.197-1.911-.59-.51-.43-.838-.95-.984-1.559L0 50.203 38.077.5h9.068v49.22Zm-8.577-31.757c0-.931.019-1.934.055-3.009.073-1.074.2-2.185.383-3.331L10.544 49.72h28.024V17.963Z" fill="#fff"/></svg><svg viewBox="0 0 241 23" id="logo" xmlns="http://www.w3.org/2000/svg"><path d="M120.005 22.392h-8.253V.33h8.253v22.063Zm-7.447-.806h6.641V1.136h-6.641v20.45Zm18.93.806h-8.087V.33h16.896c2.42-.196 4.83.484 6.792 1.915a7.427 7.427 0 0 1 2.384 6.153 7.84 7.84 0 0 1-1.755 5.44c-1.479 1.695-3.938 2.569-7.31 2.6-.85.022-7.215 0-8.915 0l-.005 5.955Zm-7.286-.806h6.48v-5.963h.405c.082 0 8.346.025 9.301 0 3.142-.028 5.4-.806 6.72-2.326a7.08 7.08 0 0 0 1.548-4.902 6.688 6.688 0 0 0-2.096-5.533 9.392 9.392 0 0 0-6.275-1.728h-16.078l-.005 20.452Zm14.383-10.106h-7.958V5.474h8.011a3.404 3.404 0 0 1 3.063 1.172c.336.56.494 1.207.454 1.859.03.604-.1 1.206-.379 1.744a3.487 3.487 0 0 1-3.191 1.225v.006Zm-7.152-.806h7.152c1.322 0 2.14-.275 2.503-.843.2-.412.29-.869.263-1.326.035-.48-.069-.96-.3-1.383l-.01-.015c-.383-.564-1.146-.827-2.403-.827h-7.205v4.394Zm32.748 12.044c-7.237 0-11.557-1.797-13.203-5.493a9.6 9.6 0 0 1-.545-2.215l-.07-.464h8.61l.056.338c.067.344.213.667.426.945.34.41 1.475 1.1 5.24 1.1 4.526 0 4.526-.794 4.526-1.221 0-.72-.524-.967-4.215-1.36l-.701-.067c-1.389-.13-3.146-.296-3.949-.365-6.77-.613-9.792-2.716-9.792-6.819 0-4.308 5.143-7.092 13.104-7.092 6.494 0 10.679 1.712 12.434 5.092.416.786.696 1.638.827 2.518l.056.453h-8.62l-.035-.364a1.377 1.377 0 0 0-.348-.764c-.323-.432-1.341-1.147-4.504-1.147-3.883 0-4.418.497-4.418 1.032 0 .714 1.227.967 5.158 1.388 1.639.134 4.275.404 5.177.514 5.675.616 8.208 2.668 8.208 6.655.001 3.345-2.328 7.336-13.422 7.336Zm-12.877-7.366c.081.531.22 1.052.414 1.553 1.499 3.368 5.577 5.007 12.463 5.007 5.757 0 12.622-1.128 12.622-6.53 0-3.534-2.24-5.285-7.493-5.854-.903-.11-3.522-.379-5.158-.514-4.191-.455-5.895-.696-5.895-2.189 0-1.544 1.836-1.837 5.224-1.837 2.678 0 4.407.483 5.141 1.458.199.24.351.518.444.816h6.986a7.246 7.246 0 0 0-.661-1.79c-1.612-3.094-5.549-4.66-11.719-4.66-7.471 0-12.299 2.467-12.299 6.285 0 3.643 2.71 5.442 9.057 6.016.806.07 2.561.235 3.954.367l.706.066c3.428.362 4.94.587 4.94 2.162 0 1.696-1.955 2.028-5.332 2.028-3.123 0-5.096-.47-5.859-1.393a2.987 2.987 0 0 1-.522-.991h-7.013Zm41.611 7.338c-8.414 0-13.056-3.402-13.056-9.582V.329h8.143v12.779c0 2.12 1.897 3.335 5.203 3.335 3.16 0 5.121-1.269 5.121-3.308V.33h8.059v13.456c.008 5.66-4.906 8.905-13.475 8.905h.005Zm-12.25-21.555v11.973c0 7.637 7.669 8.776 12.25 8.776 4.736 0 12.677-1.052 12.677-8.099V1.135h-6.447v12c0 2.499-2.328 4.114-5.927 4.114-3.762 0-6.009-1.547-6.009-4.141V1.135h-6.544Zm59.872 21.257h-7.685v-9.96l-4.359 9.96h-6.703l-4.314-9.942v9.942h-7.712V.33h10.145l5.27 12.165L230.705.329h9.842l-.01 22.063Zm-6.879-.806h6.073V1.136h-8.514l-6.063 13.344-5.78-13.345h-8.811v20.451h6.101V8.572l5.642 13.02h5.641l5.701-13 .01 12.994ZM7.758.732H.418V21.99H20.7V16.33H7.758V.732ZM35.518.25c-9.37 0-14.298 4.44-14.298 10.96 0 7.366 5.173 11.103 14.297 11.103 10.045 0 14.27-4.333 14.27-11.103 0-6.874-4.766-10.963-14.27-10.963v.003Zm-.028 5.524a15.2 15.2 0 0 1 1.908.11l-8.206 8.207a6.513 6.513 0 0 1-.554-2.792c0-3.335 1.68-5.529 6.852-5.529v.004Zm.027 11.102a15.232 15.232 0 0 1-1.839-.103l8.22-8.22c.374.863.553 1.799.524 2.74 0 3.244-1.547 5.58-6.905 5.58v.003Zm28.813-2.901h7.555a3.45 3.45 0 0 1-.677 1.434 7.826 7.826 0 0 1-5.578 1.733 7.11 7.11 0 0 1-5.605-1.868 6.016 6.016 0 0 1-1.03-3.819 5.878 5.878 0 0 1 1.11-3.98c1.057-1.192 2.844-1.706 5.471-1.706a7.457 7.457 0 0 1 4.74 1.218c.44.35.77.82.947 1.354h7.007a7.22 7.22 0 0 0-.624-2.545C75.968 2.383 72.067.352 65.435.352c-5.77 0-9.64 1.76-11.78 4.415a10.588 10.588 0 0 0-2.058 6.634 11.173 11.173 0 0 0 2.011 6.826c2.114 2.74 5.877 4.088 10.4 4.088 3.007.21 5.993-.633 8.448-2.382l.19 2.056h5.82V9.398H64.331v4.576ZM94.987.244c-9.368 0-14.297 4.44-14.297 10.96 0 7.367 5.17 11.103 14.297 11.103 10.047 0 14.271-4.333 14.271-11.102 0-6.87-4.766-10.96-14.27-10.96V.245Zm-.026 5.524c.621-.002 1.242.033 1.859.106l-8.174 8.179a6.538 6.538 0 0 1-.537-2.755c-.006-3.335 1.68-5.529 6.852-5.529v-.001Zm.026 11.102c-.63.003-1.261-.034-1.887-.11l8.247-8.249c.388.875.574 1.827.544 2.784.003 3.241-1.538 5.577-6.904 5.577v-.002Z"/></svg><svg viewBox="0 0 148 66" id="number" xmlns="http://www.w3.org/2000/svg"><path d="M5.391 55.254h12.58v-32.91c0-1.613.044-3.3.134-5.06l-7.413 6.134c-.479.388-.958.672-1.437.85-.48.15-.944.224-1.393.224-.779 0-1.483-.164-2.111-.492-.6-.358-1.049-.731-1.348-1.12L0 17.06 20.396 0h11.501v55.254H42.68v10.03H5.39v-10.03ZM77.1 23.955c2.366 0 4.702.388 7.008 1.164a17.92 17.92 0 0 1 6.2 3.582c1.827 1.612 3.295 3.657 4.403 6.135 1.138 2.448 1.707 5.343 1.707 8.686 0 3.045-.569 5.94-1.707 8.687a21.697 21.697 0 0 1-4.852 7.164c-2.067 2.03-4.568 3.642-7.503 4.836C79.421 65.403 76.171 66 72.607 66c-3.654 0-6.933-.567-9.838-1.701-2.906-1.165-5.377-2.777-7.413-4.836-2.007-2.06-3.55-4.523-4.628-7.388-1.048-2.866-1.572-6.015-1.572-9.448 0-3.254.629-6.493 1.887-9.717 1.258-3.223 3.115-6.507 5.57-9.85L71.35 3.224c.66-.896 1.648-1.642 2.965-2.239 1.318-.627 2.816-.94 4.493-.94h12.4L71.799 23.149c-.3.329-.6.672-.899 1.03l-.809.985a19.639 19.639 0 0 1 3.28-.895 21.166 21.166 0 0 1 3.729-.314ZM62.544 44.508c0 1.611.195 3.06.584 4.343.39 1.283.988 2.388 1.797 3.313.809.926 1.827 1.642 3.055 2.15 1.228.477 2.68.716 4.358.716 1.437 0 2.77-.269 3.998-.806 1.258-.537 2.336-1.269 3.235-2.194a10.62 10.62 0 0 0 2.111-3.314c.54-1.283.809-2.671.809-4.164 0-1.671-.255-3.164-.764-4.477-.479-1.314-1.168-2.418-2.066-3.314-.899-.895-1.992-1.582-3.28-2.06-1.258-.477-2.665-.716-4.223-.716-1.408 0-2.695.254-3.864.761a8.618 8.618 0 0 0-3.055 2.105c-.838.925-1.497 2.03-1.976 3.313-.48 1.284-.72 2.731-.72 4.343ZM148 .045v5.82c0 1.642-.18 2.97-.539 3.986a31.416 31.416 0 0 1-1.033 2.597L123.56 60.716c-.599 1.284-1.482 2.374-2.65 3.27-1.168.865-2.711 1.298-4.628 1.298h-10.153l23.362-46.702a24.85 24.85 0 0 1 2.021-3.448 32.206 32.206 0 0 1 2.426-2.91h-28.797c-.42 0-.824-.075-1.213-.224a4.441 4.441 0 0 1-.989-.672 4.452 4.452 0 0 1-.674-.985 2.76 2.76 0 0 1-.269-1.164V.045H148Z"/></svg></svg>